<?xml version="1.0" encoding="utf-8"?>
<!-- Generator: Adobe Illustrator 15.0.0, SVG Export Plug-In . SVG Version: 6.00 Build 0)  -->
<!DOCTYPE svg PUBLIC "-//W3C//DTD SVG 1.1//EN" "http://www.w3.org/Graphics/SVG/1.1/DTD/svg11.dtd">
<svg version="1.1" id="Layer_1" xmlns="http://www.w3.org/2000/svg" xmlns:xlink="http://www.w3.org/1999/xlink" x="0px" y="0px"
	 width="64px" height="64px" viewBox="0 0 64 64" style="enable-background:new 0 0 64 64;" xml:space="preserve">
<style type="text/css">
<![CDATA[
	.st0{fill:#EFE6FF;}
	.st1{fill:url(#SVGID_1_);}
]]>
</style>
<g id="anonymity">
	<g>
		<g>
			<linearGradient id="SVGID_1_" gradientUnits="userSpaceOnUse" x1="14.7891" y1="14.1704" x2="49.2122" y2="48.5935">
				<stop  offset="0" style="stop-color:#E68CBC"/>
				<stop  offset="1" style="stop-color:#8366B3"/>
			</linearGradient>
			<path class="st1" d="M51.529,28c-0.548,0-1.089,0.227-1.529,0.477V22c0-9.941-9.179-18-18-18c-8.821,0-18,8.059-18,18v6.477
				C13.56,28.227,13.019,28,12.471,28C11.235,28,10,29.143,10,33.715C10,38.286,11.438,42,13.832,42
				c0.234,0,0.441-0.055,0.627-0.155c1.033,6.686,3.774,10.641,7.626,13.912C24.473,57.784,27.749,60,32,60
				c4.25,0,7.524-2.215,9.911-4.24c3.854-3.27,6.597-7.227,7.63-13.914c0.186,0.1,0.393,0.154,0.627,0.154
				C52.563,42,54,38.286,54,33.715C54,29.143,52.765,28,51.529,28z M46,35.399c0,9.666-2.669,13.91-6.677,17.31
				C37.518,54.242,35.055,56,32,56c-3.057,0-5.521-1.76-7.326-3.292C20.668,49.307,18,45.062,18,35.399V22c0-7.884,7.526-14,14-14
				c6.475,0,14,6.116,14,14V35.399z"/>
		</g>
	</g>
	<path class="st0" d="M32,50c-1.654,0-3-1.346-3-3s1.346-3,3-3s3,1.346,3,3S33.654,50,32,50z M34,40h-4
		c0-5.715,1.626-7.529,4.306-9.839C36.586,28.193,38,26.48,38,24.031C38,20.593,35.421,18,32,18c-3.309,0-6,2.691-6,6h-4
		c0-5.514,4.486-10,10-10c5.607,0,10,4.406,10,10.031c0,4.194-2.442,6.88-5.082,9.158C34.914,34.917,34,35.706,34,40z"/>
</g>
</svg>
