<?xml version="1.0" encoding="utf-8"?>
<!-- Generator: Adobe Illustrator 15.0.0, SVG Export Plug-In . SVG Version: 6.00 Build 0)  -->
<!DOCTYPE svg PUBLIC "-//W3C//DTD SVG 1.1//EN" "http://www.w3.org/Graphics/SVG/1.1/DTD/svg11.dtd">
<svg version="1.1" id="Layer_1" xmlns="http://www.w3.org/2000/svg" xmlns:xlink="http://www.w3.org/1999/xlink" x="0px" y="0px"
	 width="64px" height="64px" viewBox="0 0 64 64" style="enable-background:new 0 0 64 64;" xml:space="preserve">
<style type="text/css">
<![CDATA[
	.st0{fill:#EFE6FF;}
	.st1{fill:url(#SVGID_1_);}
]]>
</style>
<g id="conversion">
	<linearGradient id="SVGID_1_" gradientUnits="userSpaceOnUse" x1="26.7075" y1="16.8081" x2="57.0917" y2="47.1923">
		<stop  offset="0" style="stop-color:#E68CBC"/>
		<stop  offset="1" style="stop-color:#8366B3"/>
	</linearGradient>
	<path class="st1" d="M44,12c-4.594,0-8.639,1.564-11.813,4.168c0.683,0.525,1.344,1.079,1.952,1.688
		c0.681,0.681,1.53,1.53,2.462,2.462C38.641,18.855,41.151,18,44,18c7.732,0,14,6.268,14,14s-6.268,14-14,14
		c-3.865,0-7.364-1.566-9.897-4.099c-1.488-1.488-5.366-5.366-8.32-8.32C25.92,33.076,26,32.548,26,32c0-3.313-2.687-6-6-6
		s-6,2.687-6,6s2.687,6,6,6c0.524,0,1.031-0.074,1.516-0.201c2.722,2.723,6.297,6.299,8.345,8.346C33.479,49.763,38.479,52,44,52
		c11.046,0,20-8.954,20-20S55.046,12,44,12z"/>
	<path class="st0" d="M49.979,36.232l-2-11c-0.1-0.549-0.495-0.998-1.028-1.164s-1.113-0.023-1.508,0.371l-2.359,2.36
		c-2.773-2.774-6.74-6.742-8.943-8.944C30.521,14.237,25.521,12,20,12C8.954,12,0,20.954,0,32s8.954,20,20,20
		c4.593,0,8.638-1.564,11.813-4.168c-0.683-0.525-1.344-1.079-1.952-1.688c-0.681-0.681-1.531-1.53-2.462-2.462
		C25.359,45.145,22.849,46,20,46c-7.732,0-14-6.268-14-14c0-7.732,6.268-14,14-14c3.865,0,7.364,1.566,9.897,4.099
		c1.595,1.594,5.938,5.938,8.942,8.943l-2.397,2.397c-0.395,0.395-0.537,0.975-0.372,1.508c0.167,0.533,0.615,0.93,1.164,1.029l11,2
		C49.204,38.152,50.155,37.201,49.979,36.232z"/>
</g>
</svg>
