<?xml version="1.0" encoding="utf-8"?>
<!-- Generator: Adobe Illustrator 21.0.0, SVG Export Plug-In . SVG Version: 6.00 Build 0)  -->
<svg version="1.1" id="Layer_1" xmlns="http://www.w3.org/2000/svg" xmlns:xlink="http://www.w3.org/1999/xlink" x="0px" y="0px"
	 viewBox="0 0 100 35" style="enable-background:new 0 0 100 35;" xml:space="preserve">
<style type="text/css">
	.st0{fill:#977FBB;}
	.st1{fill:#262262;}
	.st2{fill:none;stroke:#262262;stroke-width:4;stroke-miterlimit:10;}
	.st3{fill:none;stroke:#EF4136;stroke-miterlimit:10;}
	.st4{fill:#1B75BC;}
</style>
<g>
	<path class="st0" d="M35.1,24.2c-1,0-1.9-0.3-2.7-0.9c-0.8-0.6-1.3-1.4-1.6-2.4c-0.3-1-0.4-2.1-0.3-3.2l0.1-0.6
		c0.2-1.2,0.6-2.3,1.2-3.3s1.4-1.8,2.2-2.3c0.9-0.5,1.8-0.8,2.8-0.8c1.3,0,2.3,0.5,3.1,1.4s1.1,2.2,0.9,3.7l0,0.4l-0.1,0.8h-9.4
		l-0.1,0.7c-0.1,0.7-0.1,1.3,0,2c0.2,1.1,0.6,2.1,1.3,2.7s1.6,1,2.6,1c1.5,0,2.8-0.6,4-1.8l0.4,0.3C38.4,23.5,36.9,24.2,35.1,24.2z
		 M36.9,11.4c-1.2,0-2.3,0.5-3.3,1.4s-1.7,2.1-2.2,3.6h8.7l0-0.2c0.1-0.6,0.1-1.1,0-1.7c-0.1-0.9-0.5-1.7-1.1-2.3
		C38.5,11.7,37.7,11.4,36.9,11.4z"/>
	<path class="st0" d="M42.7,17.2c0.2-1.2,0.6-2.3,1.2-3.3c0.6-1,1.4-1.8,2.3-2.3c0.9-0.6,1.9-0.8,3-0.8c0.9,0,1.7,0.2,2.3,0.6
		c0.7,0.4,1.2,1,1.6,1.7c0.4,0.8,0.6,1.6,0.7,2.6c0,0.5,0,1.2-0.1,2.1c-0.2,1.2-0.6,2.3-1.2,3.3s-1.4,1.8-2.3,2.3s-1.9,0.8-3,0.8
		c-0.9,0-1.7-0.2-2.3-0.6s-1.2-1-1.6-1.7c-0.4-0.8-0.6-1.6-0.7-2.6C42.5,18.8,42.6,18.1,42.7,17.2z M43.2,19.8
		c0.2,1.2,0.6,2.1,1.3,2.7c0.7,0.7,1.6,1,2.6,1c1.3,0,2.4-0.4,3.4-1.3c1-0.9,1.7-2.1,2.2-3.6c0.4-1.2,0.5-2.4,0.3-3.5
		c-0.2-1.2-0.6-2.1-1.3-2.7c-0.7-0.7-1.6-1-2.6-1c-1.3,0-2.4,0.4-3.4,1.3c-1,0.9-1.7,2.1-2.2,3.5C43.2,17.5,43.1,18.7,43.2,19.8z"/>
	<path class="st0" d="M64.1,20.8c0.3-1.5-0.8-2.6-3.3-3.2l-1.3-0.4c-1.8-0.6-2.6-1.7-2.4-3.2c0.1-1,0.7-1.8,1.6-2.4
		c0.9-0.6,1.9-0.9,3.1-0.9c1.3,0,2.3,0.3,3.1,1c0.7,0.7,1,1.6,0.9,2.7h-0.6c0.1-0.9-0.2-1.6-0.8-2.2s-1.5-0.8-2.5-0.8
		c-1,0-1.9,0.2-2.7,0.7s-1.2,1.1-1.4,1.9c-0.2,1.3,0.5,2.2,2.2,2.7l1.8,0.5l0.6,0.2c1.9,0.7,2.7,1.8,2.4,3.4c-0.2,1-0.7,1.9-1.6,2.5
		s-2,0.9-3.3,0.9c-1.3,0-2.4-0.3-3.2-1c-0.8-0.7-1.1-1.5-1-2.6h0.6c0,0.9,0.3,1.6,0.9,2.1c0.6,0.5,1.5,0.8,2.7,0.8
		c1.1,0,2.1-0.3,2.9-0.8C63.5,22.3,64,21.6,64.1,20.8z"/>
	<path class="st1" d="M75.9,24c0-0.7,0.1-1.5,0.2-2.4c-0.7,0.8-1.5,1.5-2.4,1.9c-0.9,0.5-1.9,0.7-3,0.7c-1.1,0-2-0.3-2.6-1
		c-0.6-0.7-0.9-1.5-0.7-2.5c0.2-1.2,0.9-2.2,2-2.9c1.2-0.7,2.6-1,4.4-1.1h3.1l0.3-1.9c0.2-1.1,0-1.9-0.6-2.5s-1.4-0.9-2.6-0.9
		c-1.1,0-2.1,0.3-2.9,0.9c-0.9,0.6-1.4,1.3-1.7,2.3l-0.6,0c0.2-1.1,0.8-2,1.8-2.7c1-0.7,2.1-1.1,3.4-1.1c1.3,0,2.3,0.4,3,1.1
		c0.7,0.7,1,1.7,0.8,3l-1.2,6.9l-0.1,0.8c0,0.4,0,0.8,0,1.3l0,0.1H75.9z M70.7,23.6c1.1,0,2.1-0.2,3.1-0.8c1-0.5,1.8-1.3,2.5-2.3
		l0.6-3.1h-2.9c-1.6,0-2.9,0.3-4,0.9c-1.1,0.6-1.7,1.4-1.9,2.4c-0.1,0.8,0,1.5,0.6,2C69.1,23.3,69.8,23.6,70.7,23.6z"/>
	<path class="st1" d="M88.1,11.5l-0.8-0.1c-1.1,0-2.1,0.4-3,1.2c-0.9,0.8-1.5,1.8-1.8,2.9L81,24h-0.6l2.2-13h0.6l-0.5,2.7
		c0.5-0.9,1.2-1.6,2-2.2c0.8-0.5,1.7-0.8,2.6-0.8c0.3,0,0.6,0,0.9,0.1L88.1,11.5z"/>
</g>
<path class="st2" d="M52.3,25.6"/>
<path class="st2" d="M31.2,25.6"/>
<path class="st3" d="M79.6,0"/>
<g>
	
		<rect x="13.9" y="4.9" transform="matrix(0.7071 -0.7071 0.7071 0.7071 -1.5667 16.5095)" class="st4" width="10.4" height="10.4"/>
	
		<rect x="13.9" y="12.3" transform="matrix(0.7071 -0.7071 0.7071 0.7071 -6.7668 18.6635)" class="st1" width="10.4" height="10.4"/>
	
		<rect x="13.9" y="19.7" transform="matrix(0.7071 -0.7071 0.7071 0.7071 -11.967 20.8174)" class="st0" width="10.4" height="10.4"/>
</g>
</svg>
