<?xml version="1.0" encoding="utf-8"?>
<!-- Generator: Adobe Illustrator 15.0.0, SVG Export Plug-In . SVG Version: 6.00 Build 0)  -->
<!DOCTYPE svg PUBLIC "-//W3C//DTD SVG 1.1//EN" "http://www.w3.org/Graphics/SVG/1.1/DTD/svg11.dtd">
<svg version="1.1" id="Layer_1" xmlns="http://www.w3.org/2000/svg" xmlns:xlink="http://www.w3.org/1999/xlink" x="0px" y="0px"
	 width="64px" height="64px" viewBox="0 0 64 64" style="enable-background:new 0 0 64 64;" xml:space="preserve">
<style type="text/css">
<![CDATA[
	.st0{fill:#EFE6FF;}
	.st1{fill:url(#SVGID_1_);}
]]>
</style>
<g id="ledger">
	<linearGradient id="SVGID_1_" gradientUnits="userSpaceOnUse" x1="12.1494" y1="16.6865" x2="51.8524" y2="56.3895">
		<stop  offset="0" style="stop-color:#E68CBC"/>
		<stop  offset="1" style="stop-color:#8366B3"/>
	</linearGradient>
	<path class="st1" d="M20,57.921c-0.37,0-0.741-0.096-1.072-0.288L6.071,50.206C5.408,49.823,5,49.116,5,48.352V33.506
		c0-0.765,0.409-1.473,1.071-1.856l12.857-7.422c0.663-0.383,1.479-0.383,2.143,0l12.856,7.422C34.592,32.033,35,32.741,35,33.506
		v14.846c0,0.765-0.408,1.472-1.072,1.854l-12.856,7.427C20.741,57.825,20.37,57.921,20,57.921z M11,46.125l9,5.198l9-5.198V35.732
		l-9-5.194l-9,5.194V46.125z M44,57.919c-0.371,0-0.739-0.096-1.072-0.287L30.071,50.21C29.409,49.827,29,49.12,29,48.352V33.508
		c0-0.765,0.408-1.473,1.071-1.856l12.857-7.427c0.664-0.383,1.48-0.383,2.145,0l12.855,7.427C58.592,32.035,59,32.743,59,33.508
		v14.844c0,0.769-0.408,1.476-1.072,1.858l-12.855,7.422C44.739,57.823,44.371,57.919,44,57.919z M35,46.125l9,5.196l9-5.196V35.732
		l-9-5.198l-9,5.198V46.125z M32,37.135c-0.371,0-0.739-0.096-1.072-0.287l-12.856-7.422C17.409,29.042,17,28.335,17,27.567V12.724
		c0-0.766,0.408-1.474,1.071-1.856L30.928,3.44c0.664-0.383,1.48-0.383,2.145,0l12.855,7.427C46.592,11.25,47,11.958,47,12.724
		v14.844c0,0.768-0.408,1.475-1.072,1.858l-12.855,7.422C32.739,37.039,32.371,37.135,32,37.135z M23,25.341l9,5.196l9-5.196V14.948
		L32,9.75l-9,5.198V25.341z"/>
	<path class="st0" d="M31.997,51.321l-13.926-8.046C17.408,42.893,17,42.184,17,41.419V25.341l13.929-8.044
		c0.663-0.383,1.479-0.383,2.144,0L47,25.339v16.08c0,0.765-0.408,1.474-1.072,1.856L31.997,51.321z M23,39.195l9,5.198l9-5.198
		V28.802l-9-5.194l-9,5.194V39.195z"/>
</g>
</svg>
